<svg width="24" height="24" viewBox="0 0 24 24" fill="none" xmlns="http://www.w3.org/2000/svg">
<path d="M16.9306 0.075C14.7249 -0.025 9.26158 -0.025 7.05388 0.075C5.18844 0.0415017 3.38355 0.737876 2.02312 2.016C-0.282479 4.324 0.0122145 7.434 0.0122145 11.999C0.0122145 16.667 -0.247515 19.705 2.02312 21.978C4.33771 24.289 7.49242 23.986 11.9877 23.986C16.6069 23.986 18.2013 23.986 19.8346 23.356C22.0553 22.493 23.7305 20.506 23.8953 16.937C23.9952 14.728 23.9952 9.26 23.8953 7.05C23.6955 2.837 21.4389 0.282 16.9266 0.074L16.9306 0.075ZM20.422 20.446C18.9105 21.959 16.8137 21.824 11.9628 21.824C6.96797 21.824 4.97005 21.898 3.50358 20.431C1.82033 18.754 2.12501 16.061 2.12501 11.978C2.12501 6.453 1.5586 2.478 7.09783 2.19C8.37051 2.145 8.74512 2.13 11.9488 2.13L11.9937 2.16C17.3172 2.16 21.4938 1.602 21.7446 7.146C21.8015 8.411 21.8145 8.791 21.8145 11.993C21.8145 16.935 21.9074 18.952 20.422 20.446V20.446Z" fill="white"/>
</svg>
